<svg xmlns="http://www.w3.org/2000/svg" width="50" height="50" viewBox="0 0 93 93"><g><path fill="#a581e1" d="M14.8 17.7C21.5 9.7 31.2 5 41.2 3 41 17.3 41 32 41 46.4 31.2 38 22.6 28 14.8 17.7z"/><path fill="#c6ca2f" d="M81 16.8c7.3 7.2 10.8 18 10.5 28 .2 10.8-4 22.3-11.6 30-11-6.4-20-12.4-31.3-22.2C63.5 38 73.7 27.2 81 16.8z"/><path fill="#00b03e" d="M15.4 72.3c-12-12.6-14.8-33.5-5-48C24 42 36.2 52.3 37.5 54 29.8 61 23 66.5 15.3 72.2z"/><path fill="#ae00ad" d="M20 76.7c7.6-5.5 14.2-11 21-17l-.4 26.7C33 85 26.2 81.4 20 76.7z"/><path fill="#e5651a" d="M48.3 61.8c8.5 7.3 16.8 13 26.2 18.4-7.3 5.8-16.8 7.3-26 7.3.2-8.3 0-17.4-.2-25.7z"/></g></svg>
